<?xml version="1.0" encoding="iso-8859-1"?>
<!-- Generator: Adobe Illustrator 19.0.0, SVG Export Plug-In . SVG Version: 6.00 Build 0)  -->
<svg version="1.1" id="Layer_1" xmlns="http://www.w3.org/2000/svg" xmlns:xlink="http://www.w3.org/1999/xlink" x="0px" y="0px"
	 viewBox="0 0 296.999 296.999" style="enable-background:new 0 0 296.999 296.999;" xml:space="preserve">
<g>
	<g>
		<g>
			<path d="M276.096,24.107H104.129c-11.527,0-20.904,9.377-20.904,20.904v24.923c0,11.527,9.377,20.904,20.904,20.904h171.966
				c11.527,0,20.904-9.377,20.904-20.904V45.012C297,33.485,287.623,24.107,276.096,24.107z M104.443,69.621V45.326h171.338v24.295
				H104.443z"/>
			<path d="M276.096,115.134H104.129c-11.527,0-20.904,9.377-20.904,20.904v24.923c0,11.527,9.377,20.904,20.904,20.904h171.966
				c11.527,0,20.904-9.377,20.904-20.904v-24.923C297,124.511,287.623,115.134,276.096,115.134z M104.443,160.648v-24.295h171.338
				v24.295H104.443z"/>
			<path d="M276.096,206.16H104.129c-11.527,0-20.904,9.378-20.904,20.905v24.922c0,11.527,9.377,20.904,20.904,20.904h171.966
				c11.527,0,20.904-9.377,20.904-20.904v-24.922C297,215.539,287.623,206.16,276.096,206.16z M104.443,251.674v-24.295h171.338
				v24.295H104.443z"/>
			<path d="M48.529,24.107H20.904C9.377,24.107,0,33.485,0,45.012v24.923C0,81.462,9.377,90.84,20.904,90.84h27.624
				c11.527,0,20.904-9.377,20.904-20.904V45.012C69.433,33.485,60.056,24.107,48.529,24.107z M21.218,69.621V45.326h26.996v24.295
				H21.218z"/>
			<path d="M48.529,115.134H20.904C9.377,115.134,0,124.511,0,136.038v24.923c0,11.527,9.377,20.904,20.904,20.904h27.624
				c11.527,0,20.904-9.377,20.904-20.904v-24.923C69.433,124.511,60.056,115.134,48.529,115.134z M21.218,160.648v-24.295h26.996
				v24.295H21.218z"/>
			<path d="M48.529,206.16H20.904C9.377,206.16,0,215.539,0,227.066v24.922c0,11.527,9.377,20.904,20.904,20.904h27.624
				c11.527,0,20.904-9.377,20.904-20.904v-24.922C69.433,215.539,60.056,206.16,48.529,206.16z M21.218,251.674v-24.295h26.996
				v24.295H21.218z"/>
		</g>
	</g>
</g>
<g>
</g>
<g>
</g>
<g>
</g>
<g>
</g>
<g>
</g>
<g>
</g>
<g>
</g>
<g>
</g>
<g>
</g>
<g>
</g>
<g>
</g>
<g>
</g>
<g>
</g>
<g>
</g>
<g>
</g>
</svg>
